<?xml version="1.0" encoding="UTF-8"?>
<svg width="65px" height="65px" viewBox="0 0 65 65" version="1.1" xmlns="http://www.w3.org/2000/svg" xmlns:xlink="http://www.w3.org/1999/xlink">
    <title>8C13444D-DEAA-4729-8332-B2F4C9989A65</title>
    <g id="Templates" stroke="none" stroke-width="1" fill="none" fill-rule="evenodd">
        <g id="Graphics" transform="translate(-65.000000, -164.000000)" fill-rule="nonzero">
            <g id="Graphic-2" transform="translate(60.000000, 159.000000)">
                <g id="graphic-2" transform="translate(5.499268, 5.005016)">
                    <path d="M35.0754779,63.9900818 C35.3141248,63.9900818 35.6429814,63.8511661 35.8093629,63.680024 L59.8093056,38.7925101 C60.5743185,37.9950266 59.7605997,36.698765 58.734357,37.0713227 L34.0516766,46.0312623 L34.0516766,62.9449183 C34.0516766,62.9508997 34.0516766,62.9604212 34.0516766,62.9662805 C34.0516766,63.5313427 34.5102937,63.9900818 35.0754779,63.9900818 Z M28.9258344,63.9900818 C29.4910186,63.9900818 29.9496356,63.5313427 29.9496356,62.9662805 L29.9496356,46.0312623 L5.26695522,37.0713227 C4.24071255,36.698765 3.42699378,37.9950266 4.19200661,38.7925101 L28.1919494,63.680024 C28.3583308,63.8511661 28.6871875,63.9900818 28.9258344,63.9900818 Z" id="Dark" fill="#0065F2"></path>
                    <path d="M29.9496356,41.5775376 L29.9496356,1.02380127 L29.9496356,1.02380127 C29.9496356,0.458739141 29.4910186,0.000122070021 28.9258344,0.000122070021 C28.6871875,0.000122070021 28.3583308,0.139037754 28.1919494,0.310057855 L0.295775662,29.2238073 C0.132445973,29.3931184 0,29.7216088 0,29.9568378 C0,30.360035 0.306029544,30.8026609 0.68322591,30.9449946 L29.9496356,41.5775376 Z M34.0516766,41.5787583 L63.3180863,30.9463374 C63.6951606,30.8035154 64.0013123,30.3605233 64.0013123,29.957204 C64.0013123,29.721975 63.8687442,29.3933625 63.7055366,29.2238073 L35.8093629,0.310057855 C35.6429814,0.138915684 35.3141248,0 35.0754779,0 C34.5102937,0 34.0516766,0.458739141 34.0516766,1.02380127 L34.0516766,1.03443662 L34.0516766,1.03443662 L34.0516766,41.5787583 Z" id="Light" fill="#5A9AF4"></path>
                </g>
            </g>
        </g>
    </g>
</svg>