<?xml version="1.0" encoding="UTF-8"?>
<svg width="65px" height="64px" viewBox="0 0 65 64" version="1.1" xmlns="http://www.w3.org/2000/svg" xmlns:xlink="http://www.w3.org/1999/xlink">
    <title>E3179971-DDA6-4A3F-8EFB-8DB3906C3657</title>
    <g id="Templates" stroke="none" stroke-width="1" fill="none" fill-rule="evenodd">
        <g id="Graphics" transform="translate(-65.000000, -263.000000)" fill-rule="nonzero">
            <g id="Graphic-3" transform="translate(60.000000, 258.000000)">
                <g id="graphic-3" transform="translate(5.500000, 5.000439)">
                    <path d="M59.9998569,63.9995422 C62.2078595,63.9995422 63.9998474,62.2075543 63.9998474,59.9995518 L63.9998474,39.999609 C63.9998474,37.7915969 62.2078595,35.999609 59.9998569,35.999609 L39.9999142,35.999609 C37.7919021,35.999609 35.9999142,37.7915969 35.9999142,39.999609 L35.9999142,59.9995518 C35.9999142,62.2075543 37.7919021,63.9995422 39.9999142,63.9995422 L59.9998569,63.9995422 Z" id="Dark" fill="#0065F2"></path>
                    <path d="M59.8748572,27.9996281 C63.0423302,27.9996281 65.0223059,24.6658958 63.4385695,21.9996424 L51.5635978,1.99969006 C49.9798613,-0.666563352 46.0199098,-0.666563352 44.4386148,1.99969006 L32.5636431,21.9996424 C30.9799066,24.6658958 32.9598824,27.9996281 36.1273553,27.9996281 L59.8748572,27.9996281 Z M15.9999619,63.9995422 C24.831972,63.9995422 31.9999237,56.8315906 31.9999237,47.9995804 C31.9999237,39.1675702 24.831972,31.9996185 15.9999619,31.9996185 C7.16795166,31.9996185 -2.20268248e-13,39.1675702 -2.20268248e-13,47.9995804 C-2.20268248e-13,56.8315906 7.16795166,63.9995422 15.9999619,63.9995422 Z" id="Light" fill="#5A9AF4"></path>
                </g>
            </g>
        </g>
    </g>
</svg>