<?xml version="1.0" encoding="UTF-8"?>
<svg width="65px" height="64px" viewBox="0 0 65 64" version="1.1" xmlns="http://www.w3.org/2000/svg" xmlns:xlink="http://www.w3.org/1999/xlink">
    <title>08F7D586-86A9-4047-934A-EF9834317A0D</title>
    <g id="Templates" stroke="none" stroke-width="1" fill="none" fill-rule="evenodd">
        <g id="Graphics" transform="translate(-65.000000, -560.000000)" fill-rule="nonzero">
            <g id="Graphic-6" transform="translate(60.000000, 555.000000)">
                <g id="graphic-6" transform="translate(5.500000, 5.000134)">
                    <path d="M31.9999237,63.4473585 C32.7817822,63.4473585 33.9829512,63.1617146 34.6811917,62.8099088 L60.6811297,49.8099398 C62.5096166,48.8964899 63.9936218,46.4963491 63.9936218,44.4524087 L63.9936218,16.3072121 C63.9936218,14.0153474 62.2520488,11.5021698 60.1060579,10.6974843 L34.1061199,0.947507507 C33.5406915,0.729246308 32.589766,0.552244777 31.9835663,0.552244777 C31.3873763,0.552244777 30.4510993,0.723631087 29.8937276,0.935056364 L3.89378954,10.6850331 C1.74779857,11.4943574 0.00622557109,14.0125398 0.00622557109,16.3059914 L0.00622557109,44.4474038 C0.00695799122,46.4918325 1.49096324,48.8941705 3.31871767,49.8099398 L29.3186557,62.8099088 C30.0168962,63.1617146 31.2180652,63.4473585 31.9999237,63.4473585 Z M32.0061493,27.5848952 L8.0062065,17.8349184 L8.0062065,17.6974676 L32.0061493,8.69748903 L56.0060921,17.6974676 L56.0060921,17.8349184 L32.0061493,27.5848952 Z M35.9999142,53.1448928 L35.9999142,34.5323884 L55.9998665,26.4074077 L55.9998665,43.1449167 L35.9999142,53.1448928 Z" id="􏆲" fill="#5A9AF4"></path>
                    <polygon id="" fill="#0065F2" points="35.9999142 53.1448928 55.9998665 43.1449167 55.9998665 26.4074077 35.9999142 34.5323884"></polygon>
                </g>
            </g>
        </g>
    </g>
</svg>