<?xml version="1.0" encoding="UTF-8"?>
<svg width="73px" height="64px" viewBox="0 0 73 64" version="1.1" xmlns="http://www.w3.org/2000/svg" xmlns:xlink="http://www.w3.org/1999/xlink">
    <title>29612BFB-8185-4F2E-86CE-3E77DDB95E01</title>
    <g id="Templates" stroke="none" stroke-width="1" fill="none" fill-rule="evenodd">
        <g id="Graphics" transform="translate(-61.000000, -65.000000)" fill-rule="nonzero">
            <g id="Graphic-1" transform="translate(60.000000, 60.000000)">
                <g id="graphic-1" transform="translate(1.500000, 5.000134)">
                    <path d="M21.9999475,40.9999022 C27.5199539,40.9999022 31.9999237,36.5199325 31.9999237,30.9999261 C31.9999237,25.4799197 27.5199539,20.9999499 21.9999475,20.9999499 C16.4799412,20.9999499 11.9999714,25.4799197 11.9999714,30.9999261 C11.9999714,36.5199325 16.4799412,40.9999022 21.9999475,40.9999022 Z M49.9998808,40.9999022 C55.5198872,40.9999022 59.9998569,36.5199325 59.9998569,30.9999261 C59.9998569,25.4799197 55.5198872,20.9999499 49.9998808,20.9999499 C44.4798744,20.9999499 39.9999046,25.4799197 39.9999046,30.9999261 C39.9999046,36.5199325 44.4798744,40.9999022 49.9998808,40.9999022 Z" id="Dark" fill="#0065F2"></path>
                    <path d="M35.9999142,19.9999523 C41.5199205,19.9999523 45.9998903,15.5199825 45.9998903,9.99997616 C45.9998903,4.47996979 41.5199205,0 35.9999142,0 C30.4799078,0 25.999938,4.47996979 25.999938,9.99997616 C25.999938,15.5199825 30.4799078,19.9999523 35.9999142,19.9999523 Z M9.99997616,63.9998474 C15.5199825,63.9998474 19.9999523,59.5198776 19.9999523,53.9998713 C19.9999523,48.4798649 15.5199825,43.9998951 9.99997616,43.9998951 C4.47996979,43.9998951 0,48.4798649 0,53.9998713 C0,59.5198776 4.47996979,63.9998474 9.99997616,63.9998474 Z M35.9999142,63.9998474 C41.5199205,63.9998474 45.9998903,59.5198776 45.9998903,53.9998713 C45.9998903,48.4798649 41.5199205,43.9998951 35.9999142,43.9998951 C30.4799078,43.9998951 25.999938,48.4798649 25.999938,53.9998713 C25.999938,59.5198776 30.4799078,63.9998474 35.9999142,63.9998474 Z M61.9998522,63.9998474 C67.5198586,63.9998474 71.9998283,59.5198776 71.9998283,53.9998713 C71.9998283,48.4798649 67.5198586,43.9998951 61.9998522,43.9998951 C56.4798458,43.9998951 51.999876,48.4798649 51.999876,53.9998713 C51.999876,59.5198776 56.4798458,63.9998474 61.9998522,63.9998474 Z" id="Light" fill="#5A9AF4"></path>
                </g>
            </g>
        </g>
    </g>
</svg>