<?xml version="1.0" encoding="UTF-8"?>
<svg width="73px" height="64px" viewBox="0 0 73 64" version="1.1" xmlns="http://www.w3.org/2000/svg" xmlns:xlink="http://www.w3.org/1999/xlink">
    <title>8F48CC65-A644-4100-94D0-95ACCD258D13</title>
    <g id="Templates" stroke="none" stroke-width="1" fill="none" fill-rule="evenodd">
        <g id="Graphics" transform="translate(-61.000000, -362.000000)" fill-rule="nonzero">
            <g id="Graphic-4" transform="translate(60.000000, 357.000000)">
                <g id="graphic-4" transform="translate(1.500000, 5.000134)">
                    <path d="M38.999907,11.9999714 C39.5519077,11.9999714 39.9999046,11.5519744 39.9999046,10.9999738 L39.9999046,0 L31.9999237,0 L31.9999237,10.9999738 C31.9999237,11.5519744 32.4479207,11.9999714 32.9999237,11.9999714 L38.999907,11.9999714 Z M58.9998593,47.9998856 C59.55186,47.9998856 59.9998569,47.5518886 59.9998569,46.9998879 L59.9998569,35.9999142 L51.999876,35.9999142 L51.999876,46.9998879 C51.999876,47.5518886 52.447873,47.9998856 52.999876,47.9998856 L58.9998593,47.9998856 Z M18.9999547,47.9998856 C19.5519553,47.9998856 19.9999523,47.5518886 19.9999523,46.9998879 L19.9999523,35.9999142 L11.9999714,35.9999142 L11.9999714,46.9998879 C11.9999714,47.5518886 12.4479684,47.9998856 12.9999714,47.9998856 L18.9999547,47.9998856 Z" id="Dark" fill="#0065F2"></path>
                    <path d="M49.9998808,27.9999332 C51.1038821,27.9999332 51.999876,27.1039393 51.999876,25.999938 L51.999876,2 C51.999876,0.895993958 51.1038821,0 49.9998808,0 L39.9999046,0 L39.9999046,10.9999738 C39.9999046,11.5519744 39.5519077,11.9999714 38.999907,11.9999714 L32.9999213,11.9999714 C32.4479207,11.9999714 31.9999237,11.5519744 31.9999237,10.9999738 L31.9999237,0 L21.9999523,0 C20.8959463,0 19.9999523,0.895993958 19.9999523,2 L19.9999523,25.999938 C19.9999523,27.1039393 20.8959463,27.9999332 21.9999523,27.9999332 L49.9998808,27.9999332 Z M69.9998331,63.9998474 C71.1038344,63.9998474 71.9998283,63.1038535 71.9998283,61.9998522 L71.9998283,37.9999142 C71.9998283,36.8959081 71.1038344,35.9999142 69.9998331,35.9999142 L59.9998569,35.9999142 L59.9998569,46.9998879 C59.9998569,47.5518886 59.55186,47.9998856 58.9998593,47.9998856 L52.9998736,47.9998856 C52.447873,47.9998856 51.999876,47.5518886 51.999876,46.9998879 L51.999876,35.9999142 L41.9999046,35.9999142 C40.8958986,35.9999142 39.9999046,36.8959081 39.9999046,37.9999142 L39.9999046,61.9998522 C39.9999046,63.1038535 40.8958986,63.9998474 41.9999046,63.9998474 L69.9998331,63.9998474 Z M29.9999285,63.9998474 C31.1039297,63.9998474 31.9999237,63.1038535 31.9999237,61.9998522 L31.9999237,37.9999142 C31.9999237,36.8959081 31.1039297,35.9999142 29.9999285,35.9999142 L19.9999523,35.9999142 L19.9999523,46.9998879 C19.9999523,47.5518886 19.5519553,47.9998856 18.9999547,47.9998856 L12.999969,47.9998856 C12.4479684,47.9998856 11.9999714,47.5518886 11.9999714,46.9998879 L11.9999714,35.9999142 L2,35.9999142 C0.895993958,35.9999142 0,36.8959081 0,37.9999142 L0,61.9998522 C0,63.1038535 0.895993958,63.9998474 2,63.9998474 L29.9999285,63.9998474 Z" id="Light" fill="#5A9AF4"></path>
                </g>
            </g>
        </g>
    </g>
</svg>