<?xml version="1.0" encoding="UTF-8"?>
<svg width="65px" height="64px" viewBox="0 0 65 64" version="1.1" xmlns="http://www.w3.org/2000/svg" xmlns:xlink="http://www.w3.org/1999/xlink">
    <title>EB687F06-8D8E-4CD6-A1BD-25E592EF1B85</title>
    <g id="Templates" stroke="none" stroke-width="1" fill="none" fill-rule="evenodd">
        <g id="Graphics" transform="translate(-65.000000, -461.000000)" fill-rule="nonzero">
            <g id="Graphic-5" transform="translate(60.000000, 456.000000)">
                <g id="graphic-5" transform="translate(5.500000, 5.000134)">
                    <path d="M57.9998617,63.9998474 C61.3118655,63.9998474 63.9998474,61.3118655 63.9998474,57.9998617 L63.9998474,25.999938 C63.9998474,22.6879342 61.3118655,19.9999523 57.9998617,19.9999523 L43.9998951,19.9999523 L43.9998951,27.9999332 L55.9998665,27.9999332 L55.9998665,55.9998665 L27.9999332,55.9998665 L27.9999332,43.9998951 L19.9999523,43.9998951 L19.9999523,57.9998617 C19.9999523,61.3118655 22.6879342,63.9998474 25.999938,63.9998474 L57.9998617,63.9998474 Z" id="􏡖" fill="#0065F2"></path>
                    <path d="M37.9999094,43.9998951 C41.3119132,43.9998951 43.9998951,41.3119132 43.9998951,37.9999094 L43.9998951,5.99998569 C43.9998951,2.68798187 41.3119132,0 37.9999094,0 L5.99998569,0 C2.68798187,0 0,2.68798187 0,5.99998569 L0,37.9999094 C0,41.3119132 2.68798187,43.9998951 5.99998569,43.9998951 L37.9999094,43.9998951 Z" id="" fill="#5A9AF4"></path>
                </g>
            </g>
        </g>
    </g>
</svg>